<svg width="352" height="82" viewBox="0 0 352 82" fill="none" xmlns="http://www.w3.org/2000/svg">
<path d="M0 82V81.1192L1.05323 80.7669C3.2182 80.1797 4.30069 78.7705 4.30069 76.5392V28.6251C4.30069 27.3333 4.06663 26.3645 3.59853 25.7186C3.18894 25.0727 2.39902 24.6323 1.22877 24.3974L0 24.1332V23.2524L14.9207 18.1439L15.7984 19.0247L16.5884 21.7551C18.5193 20.5807 20.655 19.6706 22.9955 19.0247C25.3945 18.3788 27.8521 18.0559 30.3681 18.0559C35.4002 18.0559 39.3791 19.9936 42.3047 23.869C45.2889 27.6856 46.7809 33.1758 46.7809 40.3394C46.7809 47.3856 45.1426 52.9345 41.8659 56.986C38.6477 61.0376 34.0837 63.0634 28.1739 63.0634C23.5514 63.0634 19.6603 62.3881 16.5006 61.0376V76.275C16.5006 78.6237 17.5538 80.0917 19.6603 80.6788L21.3279 81.1192V82H0ZM23.961 60.5091C26.8866 60.5091 29.1979 58.9825 30.8947 55.9291C32.6501 52.8758 33.5278 47.7966 33.5278 40.6917C33.5278 33.5868 32.7086 28.6251 31.0703 25.8067C29.4319 22.9295 27.0621 21.4909 23.961 21.4909C21.796 21.4909 19.397 22.1955 16.7639 23.6047V59.0999C18.9874 60.0394 21.3864 60.5091 23.961 60.5091Z" fill="#2B2B2B"/>
<path d="M63.0415 63.0634C59.6478 63.0634 56.7807 62.0945 54.4402 60.1568C52.1582 58.2191 51.0172 55.43 51.0172 51.7895C51.0172 49.0297 52.4215 46.5048 55.2301 44.2148C58.0387 41.8661 62.4564 40.1045 68.4832 38.9302C69.4194 38.754 70.4726 38.5779 71.6429 38.4017C72.8131 38.1668 74.0419 37.932 75.3292 37.6971V30.739C75.3292 26.7462 74.8318 23.957 73.8371 22.3716C72.9009 20.7275 71.4088 19.9055 69.3609 19.9055C67.9566 19.9055 66.8448 20.3752 66.0257 21.3147C65.2065 22.1955 64.6799 23.7515 64.4458 25.9828L64.2703 26.9517C64.1533 29.4765 63.5389 31.3262 62.4271 32.5005C61.3154 33.6749 59.9403 34.2621 58.302 34.2621C56.7807 34.2621 55.5226 33.7923 54.5279 32.8528C53.5332 31.9134 53.0358 30.6509 53.0358 29.0655C53.0358 26.6581 53.855 24.6323 55.4934 22.9882C57.1902 21.3441 59.4137 20.111 62.1638 19.2889C64.9139 18.4669 67.8981 18.0559 71.1163 18.0559C76.3239 18.0559 80.332 19.3477 83.1406 21.9313C86.0078 24.4561 87.4413 28.5958 87.4413 34.3502V53.8153C87.4413 56.4576 88.6701 57.7787 91.1276 57.7787H93.0585L93.8485 58.4833C92.7367 59.8926 91.508 60.9789 90.1622 61.7422C88.8749 62.5055 87.0317 62.8872 84.6327 62.8872C82.0582 62.8872 80.0102 62.3 78.4889 61.1257C77.0261 59.8926 76.0606 58.2778 75.5925 56.2814C73.8371 58.1604 72.0232 59.7751 70.1508 61.1257C68.3369 62.4175 65.9672 63.0634 63.0415 63.0634ZM68.3954 57.6907C69.5657 57.6907 70.6482 57.4264 71.6429 56.898C72.6961 56.3108 73.9249 55.43 75.3292 54.2556V39.4586C74.7441 39.5761 74.1589 39.6935 73.5738 39.811C72.9887 39.9284 72.3158 40.0458 71.5551 40.1633C68.8635 40.8679 66.6986 42.0716 65.0602 43.7744C63.4804 45.4185 62.6904 47.6498 62.6904 50.4683C62.6904 52.8758 63.2463 54.696 64.3581 55.9291C65.4698 57.1035 66.8156 57.6907 68.3954 57.6907Z" fill="#2B2B2B"/>
<path d="M95.4832 61.7422V60.8614L96.7119 60.5091C98.7599 59.9219 99.7839 58.4834 99.7839 56.1933V28.6251C99.7839 27.3333 99.5791 26.3938 99.1695 25.8067C98.7599 25.1608 97.97 24.7204 96.7997 24.4855L95.4832 24.1332V23.2524L110.492 18.1439L111.369 19.0247L112.072 24.3093C114.119 22.4891 116.431 20.9918 119.005 19.8174C121.58 18.643 124.125 18.0559 126.641 18.0559C130.503 18.0559 133.458 19.1128 135.506 21.2266C137.612 23.3405 138.666 26.57 138.666 30.9151V56.2814C138.666 58.5714 139.777 60.01 142.001 60.5972L142.791 60.8614V61.7422H122.077V60.8614L123.218 60.5091C125.266 59.8632 126.29 58.4246 126.29 56.1933V28.0967C126.29 24.3387 124.418 22.4597 120.673 22.4597C118.098 22.4597 115.29 23.7515 112.247 26.3351V56.2814C112.247 58.5714 113.271 60.01 115.319 60.5972L116.109 60.8614V61.7422H95.4832Z" fill="#2B2B2B"/>
<path d="M164.832 63.0634C161.379 63.0634 158.278 62.3 155.528 60.7734C152.778 59.188 150.584 56.7805 148.946 53.551C147.366 50.2628 146.576 46.0644 146.576 40.956C146.576 35.7888 147.483 31.5317 149.297 28.1847C151.11 24.7791 153.51 22.2542 156.494 20.6101C159.478 18.9073 162.725 18.0559 166.236 18.0559C168.284 18.0559 170.244 18.2614 172.117 18.6724C173.989 19.0834 175.657 19.7 177.119 20.522V9.07196C177.119 7.83888 176.915 6.92875 176.505 6.34157C176.154 5.75438 175.364 5.34336 174.135 5.10849L172.468 4.75618V3.87541L188.442 0L189.407 0.792696L189.056 13.1235V56.1933C189.056 57.3677 189.261 58.3366 189.67 59.0999C190.08 59.8045 190.841 60.3036 191.952 60.5972L192.742 60.8614V61.7422L177.734 62.7111L176.944 59.5403C175.364 60.5972 173.55 61.4486 171.502 62.0945C169.513 62.7404 167.289 63.0634 164.832 63.0634ZM169.922 59.8045C172.38 59.8045 174.633 59.0705 176.681 57.6026V22.6359C174.516 21.2266 172.292 20.522 170.01 20.522C167.201 20.522 164.802 22.1661 162.813 25.4543C160.824 28.6839 159.829 33.7923 159.829 40.7798C159.829 47.7673 160.765 52.6996 162.637 55.5768C164.51 58.3953 166.938 59.8045 169.922 59.8045Z" fill="#2B2B2B"/>
<path d="M218.829 63.0634C214.382 63.0634 210.52 62.1532 207.243 60.333C203.967 58.454 201.421 55.8117 199.607 52.406C197.852 49.0004 196.974 45.0075 196.974 40.4275C196.974 35.8475 197.911 31.884 199.783 28.5371C201.714 25.1901 204.318 22.6065 207.594 20.7862C210.93 18.966 214.675 18.0559 218.829 18.0559C222.983 18.0559 226.699 18.966 229.976 20.7862C233.252 22.5478 235.827 25.102 237.699 28.449C239.63 31.7959 240.596 35.7888 240.596 40.4275C240.596 45.0662 239.689 49.0884 237.875 52.4941C236.119 55.841 233.603 58.454 230.327 60.333C227.108 62.1532 223.276 63.0634 218.829 63.0634ZM218.829 61.3018C220.877 61.3018 222.515 60.7146 223.744 59.5403C224.973 58.3659 225.85 56.2814 226.377 53.2868C226.962 50.2922 227.255 46.0644 227.255 40.6037C227.255 35.0841 226.962 30.8271 226.377 27.8324C225.85 24.8378 224.973 22.7533 223.744 21.5789C222.515 20.4046 220.877 19.8174 218.829 19.8174C216.781 19.8174 215.113 20.4046 213.826 21.5789C212.597 22.7533 211.69 24.8378 211.105 27.8324C210.579 30.8271 210.315 35.0841 210.315 40.6037C210.315 46.0644 210.579 50.2922 211.105 53.2868C211.69 56.2814 212.597 58.3659 213.826 59.5403C215.113 60.7146 216.781 61.3018 218.829 61.3018Z" fill="#2B2B2B"/>
<path d="M244.371 61.7422V60.8614L245.424 60.5091C247.531 59.8045 248.584 58.3366 248.584 56.1053V8.98389C248.584 7.80952 248.35 6.92875 247.882 6.34157C247.414 5.69567 246.595 5.22592 245.424 4.93233L244.283 4.6681V3.78732L260.345 0L261.398 0.792696L261.047 13.1235V43.246C261.047 45.4185 261.047 47.5911 261.047 49.7637C261.106 51.8775 261.135 53.9914 261.135 56.1053C261.135 57.2796 261.369 58.2485 261.837 59.0118C262.305 59.7164 263.095 60.2449 264.207 60.5972L265.348 60.8614V61.7422H244.371Z" fill="#2B2B2B"/>
<path d="M290.988 63.0634C287.009 63.0634 283.381 62.212 280.105 60.5091C276.887 58.7476 274.312 56.2227 272.381 52.9345C270.509 49.5875 269.572 45.5066 269.572 40.6917C269.572 35.9356 270.596 31.884 272.644 28.5371C274.751 25.1314 277.53 22.5478 280.982 20.7862C284.493 18.966 288.326 18.0559 292.48 18.0559C295.874 18.0559 298.741 18.6137 301.082 19.7293C303.422 20.845 305.207 22.3129 306.435 24.1332C307.664 25.8947 308.279 27.7444 308.279 29.6821C308.279 31.3262 307.781 32.618 306.787 33.5575C305.792 34.4382 304.505 34.8786 302.925 34.8786C301.228 34.8786 299.853 34.2621 298.8 33.029C297.746 31.7959 297.132 30.1812 296.956 28.1847C296.898 26.8929 296.927 25.8067 297.044 24.9259C297.161 23.9864 297.161 23.0469 297.044 22.1074C296.81 21.1092 296.43 20.4633 295.903 20.1697C295.435 19.8174 294.762 19.6412 293.885 19.6412C290.315 19.6412 287.536 21.1973 285.546 24.3093C283.616 27.4214 282.65 32.3831 282.65 39.1944C282.65 45.125 283.733 49.6756 285.898 52.8464C288.121 55.9585 291.515 57.5145 296.079 57.5145C298.829 57.5145 301.052 57.0154 302.749 56.0172C304.446 55.019 306.084 53.5217 307.664 51.5252L308.542 52.2299C307.079 55.6942 304.826 58.3659 301.784 60.2449C298.741 62.1239 295.143 63.0634 290.988 63.0634Z" fill="#2B2B2B"/>
<path d="M330.145 63.0634C325.757 63.0634 322.188 61.6248 319.438 58.7476C316.688 55.8704 315.313 51.7895 315.313 46.5048C315.313 42.7469 315.956 39.1651 317.243 35.7594C318.531 32.3537 320.315 29.3298 322.597 26.6874C324.938 23.9864 327.629 21.8725 330.672 20.3459C333.715 18.8192 337.021 18.0559 340.59 18.0559C344.276 18.0559 347.085 18.9073 349.016 20.6101C351.005 22.2542 352 24.4561 352 27.2159C352 29.5059 350.918 31.7666 348.753 33.9978C346.646 36.2291 343.662 38.2549 339.8 40.0752C335.938 41.8367 331.404 43.1873 326.196 44.1267C326.254 48.1783 327.132 51.1436 328.829 53.0226C330.526 54.9015 332.866 55.841 335.85 55.841C338.367 55.841 340.678 55.1658 342.784 53.8153C344.891 52.406 346.675 50.7619 348.138 48.8829L349.016 49.4995C347.846 51.7895 346.324 53.962 344.452 56.0172C342.638 58.0723 340.531 59.7751 338.132 61.1257C335.733 62.4175 333.071 63.0634 330.145 63.0634ZM339.976 20.4339C338.63 20.4339 337.167 21.0211 335.587 22.1955C334.066 23.3699 332.603 24.9846 331.199 27.0397C329.853 29.0362 328.712 31.3555 327.776 33.9978C326.898 36.5815 326.371 39.3412 326.196 42.2771C332.632 40.5156 337.196 38.1962 339.888 35.319C342.638 32.4418 344.013 29.183 344.013 25.5424C344.013 23.7809 343.633 22.4891 342.872 21.667C342.111 20.845 341.146 20.4339 339.976 20.4339Z" fill="#2B2B2B"/>
</svg>
